<?xml version="1.0" standalone="no"?>
<!DOCTYPE svg PUBLIC "-//W3C//DTD SVG 20010904//EN"
 "http://www.w3.org/TR/2001/REC-SVG-20010904/DTD/svg10.dtd">
<svg version="1.0" xmlns="http://www.w3.org/2000/svg"
 width="540.000000pt" height="540.000000pt" viewBox="0 0 540.000000 540.000000"
 preserveAspectRatio="xMidYMid meet">
<metadata>
Created by potrace 1.14, written by Peter Selinger 2001-2017
</metadata>
<g transform="translate(0.000000,540.000000) scale(0.100000,-0.100000)"
fill="#000000" stroke="none">
<path d="M2266 4507 c-39 -84 -57 -148 -52 -176 3 -14 8 -51 11 -81 11 -112
13 -126 19 -175 11 -93 35 -320 41 -385 10 -118 16 -175 21 -210 3 -19 7 -120
9 -224 3 -104 7 -198 11 -208 9 -30 36 -17 50 26 24 69 29 128 28 346 0 216
-4 273 -29 538 -8 87 -14 151 -25 272 -16 182 -23 254 -25 275 -1 11 -3 25 -4
31 0 7 -8 14 -16 18 -11 4 -22 -9 -39 -47z"/>
<path d="M2652 4547 c-12 -14 -65 -283 -59 -294 3 -5 8 -35 12 -68 13 -119 22
-190 35 -275 16 -112 27 -201 47 -380 10 -89 10 -303 1 -345 -4 -16 -9 -39
-11 -51 -11 -44 -61 -151 -88 -185 -35 -45 -50 -82 -47 -120 2 -26 7 -29 58
-39 110 -22 255 -63 268 -75 12 -10 3 -20 -50 -57 -123 -87 -224 -133 -353
-161 -166 -36 -338 -25 -430 28 -61 35 -95 73 -129 145 -29 61 -31 72 -31 180
0 144 13 180 65 180 19 0 50 9 68 20 86 53 122 276 77 480 -9 41 -18 86 -20
100 -5 31 -13 77 -21 110 -3 14 -21 98 -39 188 -31 150 -45 192 -65 192 -15 0
-70 -119 -70 -151 0 -18 23 -139 51 -268 57 -263 79 -383 73 -393 -6 -10 -97
-2 -121 10 -43 23 -94 96 -113 162 -21 68 -53 239 -71 375 -25 194 -29 217
-41 248 -6 15 -14 27 -19 27 -5 0 -27 -28 -49 -62 -49 -75 -52 -107 -24 -248
8 -41 16 -90 18 -107 3 -18 7 -36 9 -40 3 -4 8 -28 11 -53 4 -25 15 -86 24
-136 10 -51 15 -100 11 -110 -20 -54 -101 -93 -183 -88 -43 2 -55 7 -77 34
-49 58 -69 178 -74 435 -3 152 -2 145 -24 145 -13 0 -29 -22 -56 -76 -33 -67
-37 -84 -36 -144 1 -63 0 -69 -21 -76 -32 -9 -134 -60 -154 -76 -55 -44 -136
-136 -158 -180 -30 -59 -34 -132 -11 -165 24 -34 100 -58 180 -57 86 1 135 22
173 74 l27 38 31 -67 c47 -101 115 -143 218 -135 87 7 159 63 207 162 12 23
22 42 23 42 2 0 20 -25 40 -55 20 -31 52 -73 71 -94 l35 -39 -19 -46 c-17 -38
-36 -98 -47 -141 -17 -73 -21 -100 -23 -161 -7 -221 120 -390 334 -444 133
-33 308 -27 440 17 153 49 360 186 422 278 27 40 49 118 52 182 2 45 -2 56
-29 87 -36 40 -110 78 -190 96 -93 21 -91 19 -71 60 46 95 91 239 91 294 0 38
11 32 49 -29 86 -136 194 -208 324 -214 75 -3 77 -4 78 -30 0 -14 2 -34 4 -45
2 -10 6 -57 10 -105 6 -77 47 -388 60 -451 6 -32 8 -71 3 -90 -22 -88 -132
-200 -211 -216 -38 -7 -109 35 -171 102 l-62 65 -69 -45 c-58 -39 -103 -59
-220 -102 -29 -10 -36 -12 -70 -19 -16 -3 -61 -12 -100 -20 -144 -28 -406 -39
-546 -23 -79 9 -189 34 -201 46 -8 8 -14 42 -23 132 -4 36 -8 72 -10 80 -1 8
-6 51 -9 95 -14 160 -17 191 -23 220 -3 17 -6 39 -8 50 -1 11 -3 23 -4 28 0 4
-9 7 -20 7 -13 0 -27 -20 -50 -70 -30 -65 -32 -74 -26 -147 3 -43 8 -89 10
-103 3 -14 7 -56 10 -95 3 -38 8 -82 10 -97 5 -42 -13 -34 -76 31 -59 60 -104
138 -132 226 -14 44 -19 70 -32 165 -2 14 -7 75 -11 135 -10 168 -25 188 -82
113 -35 -46 -35 -44 -32 -144 l2 -70 -67 -40 c-115 -67 -191 -145 -242 -249
-38 -77 -44 -97 -40 -135 8 -75 71 -116 203 -134 43 -5 129 25 163 58 16 15
37 43 47 61 l18 34 28 -57 c44 -86 100 -155 170 -205 121 -89 111 -73 110
-165 -2 -200 -62 -327 -182 -384 -87 -42 -123 -106 -129 -226 -2 -63 -11 -89
-41 -121 -38 -39 -152 -108 -274 -166 -118 -55 -131 -68 -99 -100 13 -14 30
-16 97 -11 109 7 140 14 213 43 72 29 122 78 148 146 10 26 20 47 24 47 3 0
21 -9 39 -20 77 -47 222 -58 254 -20 19 24 55 115 63 161 3 17 6 34 7 37 6 22
-15 92 -36 121 -23 31 -76 76 -100 84 -7 3 -5 11 5 23 19 23 59 144 60 182 0
31 2 29 41 -73 82 -209 264 -354 528 -419 117 -29 225 -39 400 -39 137 1 240
6 320 17 19 3 54 8 77 11 41 5 182 43 233 63 14 5 27 9 30 8 3 0 26 12 52 27
26 15 49 27 51 27 3 0 24 -16 48 -36 58 -48 109 -73 163 -78 85 -8 180 60 235
168 12 25 26 46 30 46 4 0 16 -9 27 -21 50 -56 210 -97 257 -66 24 16 62 85
71 129 20 101 24 130 24 192 -1 118 -23 162 -67 134 -19 -12 -48 -64 -46 -83
1 -5 5 -38 9 -73 10 -81 0 -96 -60 -87 -45 6 -98 28 -125 51 -13 12 -14 23 -5
70 9 50 8 58 -8 70 -10 7 -23 11 -29 8 -7 -3 -34 -46 -62 -97 -29 -53 -74
-117 -105 -150 -52 -53 -59 -57 -100 -57 -51 0 -130 32 -130 52 0 7 7 22 15
32 19 25 19 50 1 65 -11 9 -22 6 -52 -15 -96 -65 -249 -127 -369 -150 -11 -2
-31 -6 -45 -9 -130 -26 -230 -32 -455 -30 -181 2 -226 6 -325 28 -290 63 -425
173 -499 404 -26 81 -34 123 -24 123 4 0 46 -6 93 -14 47 -8 94 -15 105 -15
55 -2 294 0 320 3 17 2 59 7 95 11 146 15 317 64 428 122 l83 43 50 -43 c56
-49 125 -87 166 -91 44 -5 105 21 151 64 51 48 118 139 151 202 l23 46 30 -59
c63 -125 177 -214 308 -240 53 -10 234 -14 275 -6 11 3 42 8 68 11 27 4 56 9
65 11 81 20 110 29 189 59 50 19 124 54 165 79 77 46 97 73 147 203 17 45 18
54 6 70 -13 18 -16 18 -77 -15 -196 -105 -271 -134 -380 -147 -88 -10 -124 1
-177 54 -55 56 -105 152 -105 205 -1 45 21 66 101 96 100 38 221 44 333 15 83
-21 112 -13 105 29 -6 33 -115 131 -180 161 -99 47 -202 31 -303 -48 -49 -38
-117 -120 -142 -171 -49 -98 -46 -255 6 -357 11 -22 12 -28 2 -29 -28 -3 -54
4 -102 26 -196 88 -278 304 -311 812 -3 40 -5 76 -6 80 -5 28 6 44 44 66 24
14 67 47 96 73 l52 46 57 -54 c31 -29 74 -64 95 -77 28 -17 36 -28 32 -40 -4
-9 -15 -47 -25 -86 -16 -62 -16 -73 -4 -97 10 -19 22 -28 39 -28 19 0 27 9 43
53 10 28 25 73 31 98 13 46 13 47 45 38 145 -40 380 -25 533 33 32 12 61 22
64 23 3 0 29 14 57 32 81 50 180 224 189 332 5 67 -14 104 -79 152 -77 57
-142 81 -196 74 -115 -15 -340 -167 -492 -333 l-75 -81 -60 29 c-54 26 -77 45
-163 136 -13 13 -31 24 -40 24 -9 -1 -42 -23 -72 -50 -49 -45 -175 -119 -184
-109 -7 7 -17 147 -31 449 -4 72 -10 109 -20 119 -12 12 -21 0 -66 -93 l-52
-107 7 -200 6 -199 -43 0 c-126 0 -235 93 -287 245 -20 58 -55 184 -64 235 -3
14 -18 93 -34 175 -33 167 -88 500 -97 595 -2 14 -3 28 -4 32 -2 16 -39 28
-49 15z m-1462 -1107 c0 -22 1 -43 1 -47 4 -18 -59 -36 -119 -35 -35 0 -67 3
-70 7 -14 14 85 81 158 108 28 10 30 7 30 -33z m3264 -32 c41 -10 146 -72 146
-86 0 -20 -108 -61 -205 -76 -127 -20 -299 -28 -344 -17 -21 6 -15 12 55 62
158 113 247 143 348 117z m-3247 -981 c13 -73 7 -82 -64 -93 -47 -7 -160 0
-170 10 -13 13 23 59 69 88 49 32 139 69 148 61 3 -3 10 -32 17 -66z m291
-1161 c16 -8 42 -30 57 -48 28 -32 28 -33 7 -36 -29 -4 -124 24 -186 55 -50
25 -50 25 -29 43 18 14 31 16 71 9 28 -4 63 -14 80 -23z"/>
<path d="M3875 4535 c-22 -6 -76 -26 -120 -42 -44 -17 -120 -45 -170 -62 -49
-18 -99 -36 -110 -41 -11 -5 -60 -23 -110 -40 -49 -17 -99 -35 -110 -40 -11
-5 -64 -25 -118 -44 -112 -40 -140 -55 -164 -94 -10 -15 -23 -33 -30 -40 -16
-17 -17 -44 -2 -59 8 -8 24 -6 58 7 25 10 93 35 151 56 58 20 114 40 125 44
57 23 211 74 218 72 4 -1 7 2 7 6 0 5 6 9 13 9 11 0 96 30 182 64 17 7 32 13
35 13 17 4 127 51 139 60 15 12 54 71 64 98 3 9 0 23 -6 31 -10 13 -18 13 -52
2z"/>
<path d="M1736 4523 c-3 -10 -7 -31 -10 -47 -7 -41 -29 -60 -60 -52 -19 5 -27
15 -32 44 -9 50 -21 64 -45 51 -10 -5 -19 -14 -19 -20 0 -6 -11 -34 -24 -62
-43 -94 -94 -95 -102 -2 -6 64 -10 75 -29 75 -25 0 -53 -77 -54 -151 -3 -112
28 -159 104 -159 38 0 50 5 80 36 33 33 38 35 58 22 61 -38 121 -11 158 70 26
57 37 175 19 197 -17 20 -37 19 -44 -2z"/>
<path d="M4500 4253 c-113 -41 -214 -78 -225 -83 -11 -5 -78 -30 -150 -55
-268 -94 -312 -114 -337 -148 -52 -71 -58 -83 -44 -102 12 -16 28 -12 232 60
120 43 280 99 354 125 310 109 355 131 394 195 23 36 28 50 19 63 -5 9 -16 18
-24 19 -8 1 -106 -32 -219 -74z"/>
<path d="M4483 1939 c-82 -53 -159 -250 -151 -385 7 -105 49 -152 148 -167 37
-6 77 11 104 44 14 16 27 29 29 29 3 0 7 -15 10 -32 9 -60 -36 -132 -152 -248
-197 -196 -289 -238 -506 -235 -66 1 -123 0 -128 -2 -13 -7 13 -42 43 -58 59
-31 248 -60 363 -57 78 2 120 24 203 107 185 184 278 403 279 660 0 108 -3
126 -26 183 -27 62 -81 142 -109 160 -35 22 -75 22 -107 1z m43 -243 l28 -23
-29 -15 c-35 -16 -68 -13 -86 9 -11 13 -10 18 10 34 30 25 44 24 77 -5z"/>
<path d="M2658 1750 c-9 -10 -24 -32 -32 -49 -22 -42 -29 -44 -77 -17 -84 46
-91 44 -141 -32 -62 -93 -65 -104 -31 -139 47 -50 99 -83 129 -83 25 0 34 9
63 60 19 33 40 60 45 60 6 0 36 -18 68 -39 65 -46 58 -49 126 63 25 39 40 75
37 85 -9 28 -131 111 -163 111 -4 0 -15 -9 -24 -20z"/>
</g>
</svg>
